<mxfile host="app.diagrams.net" modified="2021-05-09T15:27:12.083Z" agent="5.0 (Windows NT 10.0; Win64; x64) AppleWebKit/537.36 (KHTML, like Gecko) Chrome/90.0.4430.93 Safari/537.36" etag="JmNC8Zhf1depdlWPA5Ix" version="14.6.11" type="github">
  <diagram id="kgpKYQtTHZ0yAKxKKP6v" name="Page-1">
    <mxGraphModel dx="1422" dy="705" grid="1" gridSize="10" guides="1" tooltips="1" connect="1" arrows="1" fold="1" page="1" pageScale="1" pageWidth="850" pageHeight="1100" math="0" shadow="0">
      <root>
        <mxCell id="0" />
        <mxCell id="1" parent="0" />
        <mxCell id="8ZTv5LeWkePRl6BmhQkA-3" value="Customer" style="shape=umlActor;verticalLabelPosition=bottom;verticalAlign=top;html=1;outlineConnect=0;" vertex="1" parent="1">
          <mxGeometry x="40" y="110" width="30" height="60" as="geometry" />
        </mxCell>
        <mxCell id="8ZTv5LeWkePRl6BmhQkA-6" value="" style="rounded=0;whiteSpace=wrap;html=1;" vertex="1" parent="1">
          <mxGeometry x="50" y="200" width="10" height="370" as="geometry" />
        </mxCell>
        <mxCell id="8ZTv5LeWkePRl6BmhQkA-16" value="" style="endArrow=none;dashed=1;html=1;dashPattern=1 3;strokeWidth=2;exitX=0.5;exitY=0;exitDx=0;exitDy=0;" edge="1" parent="1" source="8ZTv5LeWkePRl6BmhQkA-6">
          <mxGeometry width="50" height="50" relative="1" as="geometry">
            <mxPoint x="50" y="210" as="sourcePoint" />
            <mxPoint x="55" y="190" as="targetPoint" />
          </mxGeometry>
        </mxCell>
        <mxCell id="8ZTv5LeWkePRl6BmhQkA-18" value="" style="endArrow=none;dashed=1;html=1;dashPattern=1 3;strokeWidth=2;entryX=0.5;entryY=1;entryDx=0;entryDy=0;" edge="1" parent="1" target="8ZTv5LeWkePRl6BmhQkA-6">
          <mxGeometry width="50" height="50" relative="1" as="geometry">
            <mxPoint x="55" y="630" as="sourcePoint" />
            <mxPoint x="55" y="600" as="targetPoint" />
          </mxGeometry>
        </mxCell>
        <mxCell id="8ZTv5LeWkePRl6BmhQkA-30" value="System" style="shape=umlActor;verticalLabelPosition=bottom;verticalAlign=top;html=1;outlineConnect=0;" vertex="1" parent="1">
          <mxGeometry x="200" y="110" width="30" height="60" as="geometry" />
        </mxCell>
        <mxCell id="8ZTv5LeWkePRl6BmhQkA-32" value="" style="endArrow=none;dashed=1;html=1;dashPattern=1 3;strokeWidth=2;exitX=0.5;exitY=0;exitDx=0;exitDy=0;" edge="1" parent="1" source="8ZTv5LeWkePRl6BmhQkA-33">
          <mxGeometry width="50" height="50" relative="1" as="geometry">
            <mxPoint x="220" y="210" as="sourcePoint" />
            <mxPoint x="215" y="190" as="targetPoint" />
          </mxGeometry>
        </mxCell>
        <mxCell id="8ZTv5LeWkePRl6BmhQkA-33" value="" style="rounded=0;whiteSpace=wrap;html=1;" vertex="1" parent="1">
          <mxGeometry x="210" y="220" width="10" height="60" as="geometry" />
        </mxCell>
        <mxCell id="8ZTv5LeWkePRl6BmhQkA-35" value="" style="endArrow=none;dashed=1;html=1;dashPattern=1 3;strokeWidth=2;entryX=0.5;entryY=1;entryDx=0;entryDy=0;exitX=0.5;exitY=0;exitDx=0;exitDy=0;" edge="1" parent="1" source="8ZTv5LeWkePRl6BmhQkA-54" target="8ZTv5LeWkePRl6BmhQkA-33">
          <mxGeometry width="50" height="50" relative="1" as="geometry">
            <mxPoint x="215" y="320" as="sourcePoint" />
            <mxPoint x="230" y="600" as="targetPoint" />
          </mxGeometry>
        </mxCell>
        <mxCell id="8ZTv5LeWkePRl6BmhQkA-36" value="Database" style="shape=umlActor;verticalLabelPosition=bottom;verticalAlign=top;html=1;outlineConnect=0;" vertex="1" parent="1">
          <mxGeometry x="370" y="110" width="30" height="60" as="geometry" />
        </mxCell>
        <mxCell id="8ZTv5LeWkePRl6BmhQkA-37" value="" style="endArrow=none;dashed=1;html=1;dashPattern=1 3;strokeWidth=2;exitX=0.5;exitY=0;exitDx=0;exitDy=0;" edge="1" parent="1" source="8ZTv5LeWkePRl6BmhQkA-40">
          <mxGeometry width="50" height="50" relative="1" as="geometry">
            <mxPoint x="380" y="240" as="sourcePoint" />
            <mxPoint x="375" y="190" as="targetPoint" />
          </mxGeometry>
        </mxCell>
        <mxCell id="8ZTv5LeWkePRl6BmhQkA-40" value="" style="rounded=0;whiteSpace=wrap;html=1;" vertex="1" parent="1">
          <mxGeometry x="370" y="240" width="10" height="20" as="geometry" />
        </mxCell>
        <mxCell id="8ZTv5LeWkePRl6BmhQkA-43" value="" style="endArrow=classic;html=1;exitX=1.1;exitY=0.051;exitDx=0;exitDy=0;exitPerimeter=0;" edge="1" parent="1" source="8ZTv5LeWkePRl6BmhQkA-6">
          <mxGeometry width="50" height="50" relative="1" as="geometry">
            <mxPoint x="80" y="250" as="sourcePoint" />
            <mxPoint x="210" y="220" as="targetPoint" />
            <Array as="points">
              <mxPoint x="130" y="220" />
            </Array>
          </mxGeometry>
        </mxCell>
        <mxCell id="8ZTv5LeWkePRl6BmhQkA-44" value="Sign_in()" style="edgeLabel;html=1;align=center;verticalAlign=middle;resizable=0;points=[];" vertex="1" connectable="0" parent="8ZTv5LeWkePRl6BmhQkA-43">
          <mxGeometry x="0.2215" y="-2" relative="1" as="geometry">
            <mxPoint x="-17" y="-12" as="offset" />
          </mxGeometry>
        </mxCell>
        <mxCell id="8ZTv5LeWkePRl6BmhQkA-45" value="" style="endArrow=classic;html=1;" edge="1" parent="1">
          <mxGeometry width="50" height="50" relative="1" as="geometry">
            <mxPoint x="221" y="239" as="sourcePoint" />
            <mxPoint x="370" y="239" as="targetPoint" />
          </mxGeometry>
        </mxCell>
        <mxCell id="8ZTv5LeWkePRl6BmhQkA-46" value="match_sign_in_data()" style="edgeLabel;html=1;align=center;verticalAlign=middle;resizable=0;points=[];" vertex="1" connectable="0" parent="8ZTv5LeWkePRl6BmhQkA-45">
          <mxGeometry x="-0.3154" y="-1" relative="1" as="geometry">
            <mxPoint x="23" y="-10" as="offset" />
          </mxGeometry>
        </mxCell>
        <mxCell id="8ZTv5LeWkePRl6BmhQkA-50" value="return" style="verticalAlign=bottom;endArrow=open;dashed=1;endSize=8;shadow=0;strokeWidth=1;exitX=0;exitY=1;exitDx=0;exitDy=0;" edge="1" parent="1" source="8ZTv5LeWkePRl6BmhQkA-33">
          <mxGeometry relative="1" as="geometry">
            <mxPoint x="60" y="280" as="targetPoint" />
            <mxPoint x="210" y="280" as="sourcePoint" />
          </mxGeometry>
        </mxCell>
        <mxCell id="8ZTv5LeWkePRl6BmhQkA-52" value="aProduct:Product" style="shape=cube;whiteSpace=wrap;html=1;boundedLbl=1;backgroundOutline=1;darkOpacity=0.05;darkOpacity2=0.1;size=10;" vertex="1" parent="1">
          <mxGeometry x="495" y="140" width="120" height="40" as="geometry" />
        </mxCell>
        <mxCell id="8ZTv5LeWkePRl6BmhQkA-53" value="" style="endArrow=classic;html=1;entryX=0;entryY=0;entryDx=0;entryDy=0;" edge="1" parent="1" target="8ZTv5LeWkePRl6BmhQkA-54">
          <mxGeometry width="50" height="50" relative="1" as="geometry">
            <mxPoint x="60" y="360" as="sourcePoint" />
            <mxPoint x="180" y="370" as="targetPoint" />
          </mxGeometry>
        </mxCell>
        <mxCell id="8ZTv5LeWkePRl6BmhQkA-55" value="search_product()" style="edgeLabel;html=1;align=center;verticalAlign=middle;resizable=0;points=[];" vertex="1" connectable="0" parent="8ZTv5LeWkePRl6BmhQkA-53">
          <mxGeometry x="0.28" y="1" relative="1" as="geometry">
            <mxPoint x="-16" y="-9" as="offset" />
          </mxGeometry>
        </mxCell>
        <mxCell id="8ZTv5LeWkePRl6BmhQkA-54" value="" style="rounded=0;whiteSpace=wrap;html=1;" vertex="1" parent="1">
          <mxGeometry x="210" y="360" width="10" height="60" as="geometry" />
        </mxCell>
        <mxCell id="8ZTv5LeWkePRl6BmhQkA-57" value="" style="endArrow=none;dashed=1;html=1;dashPattern=1 3;strokeWidth=2;entryX=0.5;entryY=1;entryDx=0;entryDy=0;exitX=0.5;exitY=0;exitDx=0;exitDy=0;" edge="1" parent="1" source="8ZTv5LeWkePRl6BmhQkA-58" target="8ZTv5LeWkePRl6BmhQkA-40">
          <mxGeometry width="50" height="50" relative="1" as="geometry">
            <mxPoint x="375" y="290" as="sourcePoint" />
            <mxPoint x="560" y="370" as="targetPoint" />
          </mxGeometry>
        </mxCell>
        <mxCell id="8ZTv5LeWkePRl6BmhQkA-58" value="" style="rounded=0;whiteSpace=wrap;html=1;" vertex="1" parent="1">
          <mxGeometry x="370" y="370" width="10" height="40" as="geometry" />
        </mxCell>
        <mxCell id="8ZTv5LeWkePRl6BmhQkA-60" value="" style="endArrow=classic;html=1;entryX=0;entryY=0;entryDx=0;entryDy=0;exitX=0.9;exitY=0.15;exitDx=0;exitDy=0;exitPerimeter=0;" edge="1" parent="1" source="8ZTv5LeWkePRl6BmhQkA-54" target="8ZTv5LeWkePRl6BmhQkA-58">
          <mxGeometry width="50" height="50" relative="1" as="geometry">
            <mxPoint x="270" y="450" as="sourcePoint" />
            <mxPoint x="320" y="400" as="targetPoint" />
          </mxGeometry>
        </mxCell>
        <mxCell id="8ZTv5LeWkePRl6BmhQkA-61" value="check_database()" style="edgeLabel;html=1;align=center;verticalAlign=middle;resizable=0;points=[];" vertex="1" connectable="0" parent="8ZTv5LeWkePRl6BmhQkA-60">
          <mxGeometry x="0.179" y="-2" relative="1" as="geometry">
            <mxPoint x="-8" y="-12" as="offset" />
          </mxGeometry>
        </mxCell>
        <mxCell id="8ZTv5LeWkePRl6BmhQkA-62" value="" style="endArrow=none;dashed=1;html=1;dashPattern=1 3;strokeWidth=2;entryX=0.492;entryY=1.075;entryDx=0;entryDy=0;entryPerimeter=0;exitX=0.5;exitY=0;exitDx=0;exitDy=0;" edge="1" parent="1" source="8ZTv5LeWkePRl6BmhQkA-63" target="8ZTv5LeWkePRl6BmhQkA-52">
          <mxGeometry width="50" height="50" relative="1" as="geometry">
            <mxPoint x="560" y="330" as="sourcePoint" />
            <mxPoint x="590" y="240" as="targetPoint" />
          </mxGeometry>
        </mxCell>
        <mxCell id="8ZTv5LeWkePRl6BmhQkA-63" value="" style="rounded=0;whiteSpace=wrap;html=1;" vertex="1" parent="1">
          <mxGeometry x="550" y="380" width="10" height="20" as="geometry" />
        </mxCell>
        <mxCell id="8ZTv5LeWkePRl6BmhQkA-66" value="" style="endArrow=classic;html=1;entryX=0;entryY=0;entryDx=0;entryDy=0;exitX=1;exitY=0.25;exitDx=0;exitDy=0;" edge="1" parent="1" source="8ZTv5LeWkePRl6BmhQkA-58" target="8ZTv5LeWkePRl6BmhQkA-63">
          <mxGeometry width="50" height="50" relative="1" as="geometry">
            <mxPoint x="390" y="410" as="sourcePoint" />
            <mxPoint x="440" y="360" as="targetPoint" />
          </mxGeometry>
        </mxCell>
        <mxCell id="8ZTv5LeWkePRl6BmhQkA-67" value="data_input()" style="edgeLabel;html=1;align=center;verticalAlign=middle;resizable=0;points=[];" vertex="1" connectable="0" parent="8ZTv5LeWkePRl6BmhQkA-66">
          <mxGeometry x="0.1529" y="-1" relative="1" as="geometry">
            <mxPoint x="-8" y="-11" as="offset" />
          </mxGeometry>
        </mxCell>
        <mxCell id="8ZTv5LeWkePRl6BmhQkA-74" value="" style="endArrow=classic;html=1;entryX=0;entryY=0;entryDx=0;entryDy=0;exitX=1.2;exitY=0.518;exitDx=0;exitDy=0;exitPerimeter=0;" edge="1" parent="1" target="8ZTv5LeWkePRl6BmhQkA-76">
          <mxGeometry width="50" height="50" relative="1" as="geometry">
            <mxPoint x="62" y="452.02" as="sourcePoint" />
            <mxPoint x="180" y="500" as="targetPoint" />
          </mxGeometry>
        </mxCell>
        <mxCell id="8ZTv5LeWkePRl6BmhQkA-77" value="payment()" style="edgeLabel;html=1;align=center;verticalAlign=middle;resizable=0;points=[];" vertex="1" connectable="0" parent="8ZTv5LeWkePRl6BmhQkA-74">
          <mxGeometry x="0.2706" y="2" relative="1" as="geometry">
            <mxPoint x="-16" y="-9" as="offset" />
          </mxGeometry>
        </mxCell>
        <mxCell id="8ZTv5LeWkePRl6BmhQkA-75" value="" style="endArrow=none;dashed=1;html=1;dashPattern=1 3;strokeWidth=2;entryX=0.5;entryY=1;entryDx=0;entryDy=0;exitX=0.5;exitY=0;exitDx=0;exitDy=0;" edge="1" parent="1" source="8ZTv5LeWkePRl6BmhQkA-76" target="8ZTv5LeWkePRl6BmhQkA-54">
          <mxGeometry width="50" height="50" relative="1" as="geometry">
            <mxPoint x="215" y="440" as="sourcePoint" />
            <mxPoint x="220" y="470" as="targetPoint" />
          </mxGeometry>
        </mxCell>
        <mxCell id="8ZTv5LeWkePRl6BmhQkA-76" value="" style="rounded=0;whiteSpace=wrap;html=1;" vertex="1" parent="1">
          <mxGeometry x="210" y="450" width="10" height="60" as="geometry" />
        </mxCell>
        <mxCell id="8ZTv5LeWkePRl6BmhQkA-84" value="loop(1,n)" style="swimlane;" vertex="1" parent="1">
          <mxGeometry x="30" y="310" width="550" height="220" as="geometry" />
        </mxCell>
        <mxCell id="8ZTv5LeWkePRl6BmhQkA-93" value="" style="endArrow=none;dashed=1;html=1;dashPattern=1 3;strokeWidth=2;entryX=0.5;entryY=1;entryDx=0;entryDy=0;" edge="1" parent="8ZTv5LeWkePRl6BmhQkA-84" target="8ZTv5LeWkePRl6BmhQkA-58">
          <mxGeometry width="50" height="50" relative="1" as="geometry">
            <mxPoint x="345" y="310" as="sourcePoint" />
            <mxPoint x="370" y="140" as="targetPoint" />
          </mxGeometry>
        </mxCell>
        <mxCell id="8ZTv5LeWkePRl6BmhQkA-94" value="" style="endArrow=none;dashed=1;html=1;dashPattern=1 3;strokeWidth=2;entryX=0.5;entryY=1;entryDx=0;entryDy=0;" edge="1" parent="8ZTv5LeWkePRl6BmhQkA-84" target="8ZTv5LeWkePRl6BmhQkA-63">
          <mxGeometry width="50" height="50" relative="1" as="geometry">
            <mxPoint x="525" y="310" as="sourcePoint" />
            <mxPoint x="500" y="120" as="targetPoint" />
          </mxGeometry>
        </mxCell>
        <mxCell id="8ZTv5LeWkePRl6BmhQkA-96" value="data_output()" style="verticalAlign=bottom;endArrow=open;dashed=1;endSize=8;shadow=0;strokeWidth=1;exitX=0;exitY=1;exitDx=0;exitDy=0;" edge="1" parent="8ZTv5LeWkePRl6BmhQkA-84">
          <mxGeometry relative="1" as="geometry">
            <mxPoint x="190" y="100" as="targetPoint" />
            <mxPoint x="340" y="100" as="sourcePoint" />
          </mxGeometry>
        </mxCell>
        <mxCell id="8ZTv5LeWkePRl6BmhQkA-99" value="display_product_list()" style="text;html=1;strokeColor=none;fillColor=none;align=center;verticalAlign=middle;whiteSpace=wrap;rounded=0;" vertex="1" parent="8ZTv5LeWkePRl6BmhQkA-84">
          <mxGeometry x="90" y="80" width="40" height="20" as="geometry" />
        </mxCell>
        <mxCell id="8ZTv5LeWkePRl6BmhQkA-85" value="" style="endArrow=none;dashed=1;html=1;dashPattern=1 3;strokeWidth=2;entryX=0.5;entryY=1;entryDx=0;entryDy=0;exitX=0.5;exitY=0;exitDx=0;exitDy=0;" edge="1" parent="1" source="8ZTv5LeWkePRl6BmhQkA-86" target="8ZTv5LeWkePRl6BmhQkA-76">
          <mxGeometry width="50" height="50" relative="1" as="geometry">
            <mxPoint x="215" y="540" as="sourcePoint" />
            <mxPoint x="280" y="570" as="targetPoint" />
          </mxGeometry>
        </mxCell>
        <mxCell id="8ZTv5LeWkePRl6BmhQkA-86" value="" style="rounded=0;whiteSpace=wrap;html=1;" vertex="1" parent="1">
          <mxGeometry x="210" y="550" width="10" height="30" as="geometry" />
        </mxCell>
        <mxCell id="8ZTv5LeWkePRl6BmhQkA-88" value="" style="endArrow=classic;html=1;entryX=0;entryY=0;entryDx=0;entryDy=0;exitX=1;exitY=0.877;exitDx=0;exitDy=0;exitPerimeter=0;" edge="1" parent="1" target="8ZTv5LeWkePRl6BmhQkA-86">
          <mxGeometry width="50" height="50" relative="1" as="geometry">
            <mxPoint x="60" y="552.03" as="sourcePoint" />
            <mxPoint x="170" y="620" as="targetPoint" />
          </mxGeometry>
        </mxCell>
        <mxCell id="8ZTv5LeWkePRl6BmhQkA-89" value="sign_out()" style="edgeLabel;html=1;align=center;verticalAlign=middle;resizable=0;points=[];" vertex="1" connectable="0" parent="8ZTv5LeWkePRl6BmhQkA-88">
          <mxGeometry x="-0.1733" relative="1" as="geometry">
            <mxPoint x="18" y="-11" as="offset" />
          </mxGeometry>
        </mxCell>
        <mxCell id="8ZTv5LeWkePRl6BmhQkA-92" value="" style="endArrow=none;dashed=1;html=1;dashPattern=1 3;strokeWidth=2;entryX=0.5;entryY=1;entryDx=0;entryDy=0;" edge="1" parent="1" target="8ZTv5LeWkePRl6BmhQkA-86">
          <mxGeometry width="50" height="50" relative="1" as="geometry">
            <mxPoint x="215" y="620" as="sourcePoint" />
            <mxPoint x="250" y="610" as="targetPoint" />
          </mxGeometry>
        </mxCell>
        <mxCell id="8ZTv5LeWkePRl6BmhQkA-95" value="data_output()" style="verticalAlign=bottom;endArrow=open;dashed=1;endSize=8;shadow=0;strokeWidth=1;exitX=0;exitY=1;exitDx=0;exitDy=0;entryX=1;entryY=0.75;entryDx=0;entryDy=0;" edge="1" parent="1" source="8ZTv5LeWkePRl6BmhQkA-40" target="8ZTv5LeWkePRl6BmhQkA-33">
          <mxGeometry relative="1" as="geometry">
            <mxPoint x="220" y="280" as="targetPoint" />
            <mxPoint x="370" y="280" as="sourcePoint" />
          </mxGeometry>
        </mxCell>
        <mxCell id="8ZTv5LeWkePRl6BmhQkA-97" value="get_product_information()" style="verticalAlign=bottom;endArrow=open;dashed=1;endSize=8;shadow=0;strokeWidth=1;exitX=0;exitY=1;exitDx=0;exitDy=0;entryX=1;entryY=0.75;entryDx=0;entryDy=0;" edge="1" parent="1" source="8ZTv5LeWkePRl6BmhQkA-63" target="8ZTv5LeWkePRl6BmhQkA-58">
          <mxGeometry relative="1" as="geometry">
            <mxPoint x="380" y="400" as="targetPoint" />
            <mxPoint x="530" y="400" as="sourcePoint" />
          </mxGeometry>
        </mxCell>
        <mxCell id="8ZTv5LeWkePRl6BmhQkA-98" value="display_product_information()" style="verticalAlign=bottom;endArrow=open;dashed=1;endSize=8;shadow=0;strokeWidth=1;exitX=0;exitY=1;exitDx=0;exitDy=0;entryX=1;entryY=0.595;entryDx=0;entryDy=0;entryPerimeter=0;" edge="1" parent="1" source="8ZTv5LeWkePRl6BmhQkA-54" target="8ZTv5LeWkePRl6BmhQkA-6">
          <mxGeometry relative="1" as="geometry">
            <mxPoint x="50" y="430" as="targetPoint" />
            <mxPoint x="200" y="430" as="sourcePoint" />
          </mxGeometry>
        </mxCell>
        <mxCell id="8ZTv5LeWkePRl6BmhQkA-102" value="confirm_patment()" style="verticalAlign=bottom;endArrow=open;dashed=1;endSize=8;shadow=0;strokeWidth=1;exitX=0;exitY=1;exitDx=0;exitDy=0;entryX=1.1;entryY=0.838;entryDx=0;entryDy=0;entryPerimeter=0;" edge="1" parent="1" source="8ZTv5LeWkePRl6BmhQkA-76" target="8ZTv5LeWkePRl6BmhQkA-6">
          <mxGeometry relative="1" as="geometry">
            <mxPoint x="230" y="470" as="targetPoint" />
            <mxPoint x="380" y="470" as="sourcePoint" />
          </mxGeometry>
        </mxCell>
      </root>
    </mxGraphModel>
  </diagram>
</mxfile>
